<?xml version="1.0" encoding="UTF-8"?>
<svg width="789px" height="182px" viewBox="0 0 789 182" version="1.1" xmlns="http://www.w3.org/2000/svg" xmlns:xlink="http://www.w3.org/1999/xlink">
    <title>12d</title>
    <defs>
        <linearGradient x1="-256.038487%" y1="50%" x2="344.974279%" y2="50%" id="linearGradient-1">
            <stop stop-color="#FF727C" offset="0%"></stop>
            <stop stop-color="#E2598A" offset="50.21597%"></stop>
            <stop stop-color="#0077FC" offset="100%"></stop>
        </linearGradient>
        <linearGradient x1="-256.038487%" y1="50%" x2="344.974279%" y2="50%" id="linearGradient-2">
            <stop stop-color="#FF727C" offset="0%"></stop>
            <stop stop-color="#E2598A" offset="50.21597%"></stop>
            <stop stop-color="#0077FC" offset="100%"></stop>
        </linearGradient>
        <linearGradient x1="-256.038487%" y1="50%" x2="344.974279%" y2="50%" id="linearGradient-3">
            <stop stop-color="#FF727C" offset="0%"></stop>
            <stop stop-color="#E2598A" offset="50.21597%"></stop>
            <stop stop-color="#0077FC" offset="100%"></stop>
        </linearGradient>
        <linearGradient x1="-47.4801797%" y1="50%" x2="149.350662%" y2="50%" id="linearGradient-4">
            <stop stop-color="#50399F" offset="0%"></stop>
            <stop stop-color="#FF727C" offset="100%"></stop>
        </linearGradient>
        <linearGradient x1="-47.4801797%" y1="50%" x2="149.350662%" y2="50%" id="linearGradient-5">
            <stop stop-color="#50399F" offset="0%"></stop>
            <stop stop-color="#FF727C" offset="100%"></stop>
        </linearGradient>
    </defs>
    <g id="i2dLogo" stroke="none" stroke-width="1" fill="none" fill-rule="evenodd">
        <g id="Group-2" transform="translate(-6.000000, -106.000000)">
            <g id="12d" transform="translate(6.000000, 106.000000)">
                <g id="Group" transform="translate(234.000000, 30.000000)">
                    <path d="M110,0 L110,77 L110,78 L134,78 L134.098361,24.056338 L166.653525,24.056338 C180.045328,24.056338 190.901639,34.8937183 190.901639,48.262169 L190.901639,73.737831 C190.901639,87.1062817 180.045328,97.943662 166.653525,97.943662 L110,98 L110,122 L168.433361,122 C194.151475,122 215,101.187831 215,75.5145634 L215,46.4854366 C215,20.812169 194.151475,0 168.433361,0 L134.098361,0 L110,0 Z" id="Fill-5" fill="url(#linearGradient-1)"></path>
                    <path d="M0,122 L0,2.84217094e-14 L53,2.84217094e-14 C79.6666667,2.84217094e-14 93,13 93,39 C93,65 79.6666667,78 53,78 L41,78 L41,57 L45,57 C60.3333333,57 68,51 68,39 C68,27 60.3333333,21 45,21 L25,21 L25,57 L25,122 L0,122 Z" id="Path-2" fill="url(#linearGradient-2)"></path>
                    <path d="M320,0 L320,21 L258,21 L258,122 L233,122 L233,0 L320,0 Z M312,50 L312,71 L274,71 L274,50 L312,50 Z" id="Combined-Shape" fill="url(#linearGradient-3)"></path>
                </g>
                <polygon id="Path" fill="url(#linearGradient-4)" transform="translate(150.155000, 91.000000) scale(1, -1) translate(-150.155000, -91.000000) " points="179.769618 0 76.155 91.9069767 179.769618 182 224.155 182 120.540382 91.9069767 224.155 0"></polygon>
                <polygon id="Path" fill="url(#linearGradient-4)" transform="translate(74.155000, 91.000000) scale(1, -1) translate(-74.155000, -91.000000) " points="103.769618 0 0.155 91.9069767 103.769618 182 148.155 182 44.5403821 91.9069767 148.155 0"></polygon>
                <polygon id="Path" fill="url(#linearGradient-4)" transform="translate(714.155000, 91.000000) scale(-1, -1) translate(-714.155000, -91.000000) " points="743.769618 0 640.155 91.9069767 743.769618 182 788.155 182 684.540382 91.9069767 788.155 0"></polygon>
                <polygon id="Path" fill="url(#linearGradient-5)" transform="translate(637.155000, 91.000000) scale(-1, -1) translate(-637.155000, -91.000000) " points="666.769618 0 563.155 91.9069767 666.769618 182 711.155 182 607.540382 91.9069767 711.155 0"></polygon>
            </g>
        </g>
    </g>
</svg>