<?xml version="1.0" encoding="UTF-8"?>
<svg width="1572px" height="400px" viewBox="0 0 1572 400" version="1.1" xmlns="http://www.w3.org/2000/svg" xmlns:xlink="http://www.w3.org/1999/xlink">
    <title>12d</title>
    <defs>
        <polygon id="path-1" points="0.0257495731 0 223.93037 0 223.93037 252 0.0257495731 252"></polygon>
        <linearGradient x1="-47.4801797%" y1="50%" x2="149.350662%" y2="50%" id="linearGradient-3">
            <stop stop-color="#FF727C" offset="0%"></stop>
            <stop stop-color="#0077FC" offset="100%"></stop>
        </linearGradient>
        <linearGradient x1="-205.773441%" y1="50%" x2="100%" y2="50%" id="linearGradient-4">
            <stop stop-color="#FF727C" offset="0%"></stop>
            <stop stop-color="#0077FC" offset="100%"></stop>
        </linearGradient>
        <linearGradient x1="-47.4801797%" y1="50%" x2="149.350662%" y2="50%" id="linearGradient-5">
            <stop stop-color="#FF727C" offset="0%"></stop>
            <stop stop-color="#0077FC" offset="100%"></stop>
        </linearGradient>
    </defs>
    <g id="i2dLogo" stroke="none" stroke-width="1" fill="none" fill-rule="evenodd">
        <g id="12d">
            <g id="Group-3" transform="translate(452.000000, 122.000000)">
                <mask id="mask-2" fill="white">
                    <use xlink:href="#path-1"></use>
                </mask>
                <g id="Clip-2"></g>
                <path d="M131.4372,-1.87738713e-13 C44.9242877,-1.15617667 1.04932229,-1.15617667 -0.187696205,2.61679567e-13 C-1.4247147,1.15617667 -1.4247147,17.719557 -0.187696205,49.6901408 L81.6331852,49.6901408 L81.6331852,252 L223.93037,252 L223.93037,202.309859 L131.4372,202.309859 L131.4372,-1.87738713e-13 Z" id="Fill-1" fill="#FF727C" mask="url(#mask-2)"></path>
            </g>
            <polyline id="Fill-4" fill="url(#linearGradient-3)" points="757.736842 324.309859 757.736842 278.169014 871.926316 278.169014 871.926316 122 615 122 615 171.690141 821.968421 171.690141 821.968421 228.478873 707.778947 228.478873 707.778947 374 954 374 954 324.309859 757.736842 324.309859"></polyline>
            <path d="M952.803279,122 L903,122 L903,278.169014 L952.803279,278.169014 L952.803279,171.690141 L1020.08395,171.690141 C1047.76034,171.690141 1070.19672,194.075549 1070.19672,221.68907 L1070.19672,274.31093 C1070.19672,301.924451 1047.76034,324.309859 1020.08395,324.309859 L984.819672,324.309859 L984.819672,374 L1023.76228,374 C1076.91305,374 1120,331.01093 1120,277.980901 L1120,218.019099 C1120,164.98907 1076.91305,122 1023.76228,122 L952.803279,122" id="Fill-5" fill="url(#linearGradient-4)"></path>
            <path d="M532,90 C514.326857,90 500,75.6915204 500,58.0410474 C500,40.3905745 516,26 532,26 C548,26 564,40.3905745 564,58.0410474 C564,75.6915204 549.673143,90 532,90 Z" id="Fill-6" fill="#0077FC"></path>
            <polygon id="Path" fill="url(#linearGradient-5)" points="377 0 151 201.993355 377 400 452 400 226 201.993355 452 0"></polygon>
            <polygon id="Path" fill="url(#linearGradient-5)" points="226 0 -1.13686838e-13 201.993355 226 400 301 400 75 201.993355 301 0"></polygon>
            <polygon id="Path" fill="url(#linearGradient-5)" transform="translate(1421.500000, 200.000000) scale(-1, 1) translate(-1421.500000, -200.000000) " points="1497 0 1271 201.993355 1497 400 1572 400 1346 201.993355 1572 0"></polygon>
            <polygon id="Path" fill="url(#linearGradient-5)" transform="translate(1270.500000, 200.000000) scale(-1, 1) translate(-1270.500000, -200.000000) " points="1346 0 1120 201.993355 1346 400 1421 400 1195 201.993355 1421 0"></polygon>
        </g>
    </g>
</svg>